<?xml version="1.0" standalone="no"?>
<!DOCTYPE svg PUBLIC "-//W3C//DTD SVG 20010904//EN"
 "http://www.w3.org/TR/2001/REC-SVG-20010904/DTD/svg10.dtd">
<svg version="1.0" xmlns="http://www.w3.org/2000/svg"
 width="860.000000pt" height="860.000000pt" viewBox="0 0 860.000000 860.000000"
 preserveAspectRatio="xMidYMid meet">
<metadata>
Created by potrace 1.14, written by Peter Selinger 2001-2017
</metadata>
<g transform="translate(0.000000,860.000000) scale(0.100000,-0.100000)"
fill="#000000" stroke="none">
<path d="M5437 8594 c-2 -2 -23 -6 -48 -8 -144 -15 -285 -106 -344 -223 -17
-32 -28 -58 -27 -58 2 0 -1 -13 -7 -28 -6 -15 -13 -40 -16 -55 -2 -15 -16 -76
-30 -137 -15 -60 -30 -128 -35 -150 -5 -22 -29 -123 -55 -225 -26 -102 -48
-192 -50 -200 -2 -8 -8 -35 -15 -60 -7 -25 -14 -54 -16 -65 -10 -53 -13 -66
-18 -73 -3 -5 -7 -19 -10 -33 -5 -29 -74 -302 -86 -344 -5 -16 -14 -49 -20
-73 -9 -36 -14 -41 -33 -37 -12 3 -34 7 -49 10 -39 7 -69 13 -183 35 -89 18
-145 29 -237 45 -16 3 -38 7 -50 9 -13 3 -50 9 -83 15 -33 6 -76 13 -95 17
-19 3 -45 8 -57 9 -12 2 -34 6 -50 9 -15 3 -46 8 -68 11 -23 3 -52 8 -65 10
-14 3 -41 8 -60 11 -19 3 -62 10 -95 15 -33 6 -73 12 -90 14 -49 6 -179 25
-195 30 -8 2 -44 7 -80 11 -36 4 -74 8 -85 10 -60 9 -132 17 -145 17 -24 -1
-104 -14 -120 -19 -8 -3 -26 -8 -40 -10 -14 -3 -56 -11 -95 -20 -38 -8 -81
-16 -95 -18 -14 -1 -30 -5 -35 -8 -6 -3 -26 -9 -45 -12 -19 -3 -46 -8 -60 -11
-14 -3 -34 -8 -45 -10 -11 -3 -81 -21 -155 -40 -74 -20 -144 -38 -156 -40 -12
-3 -41 -12 -65 -21 -24 -8 -51 -17 -59 -19 -23 -5 -211 -74 -245 -89 -16 -8
-42 -18 -58 -21 -15 -4 -30 -11 -33 -16 -3 -5 -14 -9 -25 -9 -10 0 -19 -5 -19
-12 0 -6 -3 -9 -6 -6 -5 5 -35 -6 -139 -51 -11 -5 -41 -19 -66 -30 -25 -12
-51 -21 -57 -21 -7 0 -12 -4 -12 -10 0 -5 -7 -10 -15 -10 -8 0 -56 -20 -107
-45 -118 -57 -134 -80 -136 -185 -1 -70 -6 -135 -16 -220 -2 -19 -7 -69 -10
-110 -4 -41 -9 -97 -11 -125 -7 -69 -16 -181 -20 -235 -3 -43 -5 -78 -21 -280
-3 -47 -7 -109 -9 -138 -1 -29 -4 -55 -8 -58 -3 -3 -1 -18 3 -34 4 -16 6 -31
3 -34 -6 -6 -10 -50 -18 -201 -2 -55 -7 -145 -10 -200 -30 -582 -52 -1737 -34
-1863 3 -23 2 -45 -3 -48 -4 -3 -4 -13 1 -23 6 -10 6 -23 1 -31 -5 -8 -7 -18
-4 -22 3 -4 7 -72 9 -150 10 -292 21 -553 30 -662 2 -35 7 -102 10 -147 3 -46
8 -109 11 -139 2 -30 7 -84 10 -120 2 -36 6 -75 9 -87 2 -12 7 -60 11 -105 6
-78 10 -106 14 -118 1 -3 2 -9 1 -13 -1 -4 3 -36 8 -70 6 -34 13 -84 16 -112
7 -57 10 -73 20 -135 10 -58 12 -79 14 -110 1 -31 50 -110 68 -110 7 0 13 -4
13 -8 0 -8 51 -36 59 -32 2 1 7 -3 10 -8 10 -15 268 -104 456 -157 33 -9 66
-19 73 -21 7 -2 14 -4 17 -4 3 -1 19 -6 37 -12 18 -5 49 -14 68 -18 19 -5 80
-20 135 -35 55 -14 107 -28 115 -30 8 -1 53 -12 100 -24 74 -17 331 -76 383
-86 10 -2 26 -6 35 -9 9 -3 35 -7 57 -11 22 -3 56 -10 75 -15 60 -16 312 -63
343 -64 9 0 17 -4 17 -9 0 -4 4 -6 9 -3 4 3 42 -1 82 -8 41 -8 94 -17 119 -20
25 -3 55 -8 66 -10 37 -7 87 -15 149 -21 33 -4 63 -9 66 -11 3 -2 40 -6 82 -9
42 -3 87 -8 99 -10 98 -19 524 -26 693 -12 158 14 199 19 310 37 110 17 127
20 175 31 25 6 56 13 70 15 14 3 52 12 85 21 33 8 65 16 70 18 6 1 17 5 25 8
8 3 40 13 70 22 85 27 259 95 320 127 30 15 60 28 67 28 7 0 13 4 13 8 0 4 25
20 55 35 65 34 216 145 268 199 51 54 65 77 71 123 4 23 8 50 10 62 4 19 11
109 22 268 9 143 22 435 40 940 5 149 10 313 18 669 3 121 8 221 11 224 2 3 0
13 -6 23 -5 11 -6 19 -2 19 4 0 9 62 9 138 1 75 5 281 8 457 4 176 6 331 6
345 -1 14 -1 30 0 35 5 35 2 2090 -3 2175 -12 183 -22 233 -54 281 -14 21 -35
41 -46 45 -12 4 -28 14 -36 24 -9 9 -41 27 -71 40 -30 12 -73 30 -95 40 -23
10 -54 22 -70 26 -17 4 -34 10 -40 14 -18 13 -103 38 -109 32 -3 -3 -6 -1 -6
5 0 5 -6 10 -12 10 -7 1 -60 15 -117 33 -57 17 -111 33 -120 35 -48 12 -227
59 -230 62 -3 2 17 105 33 168 2 6 6 24 10 40 4 17 10 37 13 45 3 8 7 25 9 37
1 13 5 32 9 42 3 11 7 28 9 38 2 10 12 47 21 83 9 36 19 73 21 83 6 27 11 49
23 97 7 25 13 52 15 60 2 8 16 67 31 130 15 63 38 156 51 206 13 50 26 105 29
122 3 17 10 44 16 59 6 15 9 28 8 28 -1 0 1 10 5 22 4 12 23 32 42 44 19 12
42 32 50 45 10 14 22 21 32 17 15 -4 134 -53 217 -89 43 -18 195 -83 230 -99
202 -87 293 -125 303 -125 7 0 12 -4 12 -10 0 -5 6 -10 14 -10 7 0 42 -13 77
-28 58 -26 95 -42 109 -47 3 -1 23 -10 45 -19 22 -10 83 -36 135 -58 52 -22
113 -48 135 -58 100 -45 406 -175 460 -195 53 -20 65 -22 97 -11 60 21 114 73
155 149 36 69 45 174 20 224 -35 67 -97 102 -484 274 -24 11 -62 28 -85 38
-83 37 -405 174 -558 237 -85 35 -168 70 -185 78 -64 29 -72 33 -415 173 -47
19 -101 42 -120 50 -66 29 -75 32 -126 43 -47 10 -210 21 -217 14z"/>
</g>
</svg>
